<svg xmlns="http://www.w3.org/2000/svg" xmlns:xlink="http://www.w3.org/1999/xlink" id="Capa_1" data-name="Capa 1" viewBox="0 0 595.3 595.3"><defs><style>.cls-1{fill:url(#Degradado_sin_nombre_21);}</style><linearGradient id="Degradado_sin_nombre_21" x1="297.65" y1="512.29" x2="297.65" y2="83.01" gradientUnits="userSpaceOnUse"><stop offset="0" stop-color="#a993f9"></stop><stop offset="1" stop-color="#d9d2f9"></stop></linearGradient></defs><path class="cls-1" d="M497.13,155.4a46.87,46.87,0,1,0,0-23.32H381.59a11.68,11.68,0,0,0-11.65,11.65V293H308V143.75C308,103.87,232.13,83,157.17,83s-151,20.86-151,60.74V432c0,39.87,75.9,60.74,150.86,60.74S307.9,471.83,307.9,432V316.3h61.91V465.43a11.69,11.69,0,0,0,11.66,11.65H497a46.87,46.87,0,1,0,0-23.31H393.25V316.3H497.13a46.87,46.87,0,1,0,0-23.31H393.25V155.41Zm45.12-35.1a23.55,23.55,0,1,1-23.55,23.55A23.56,23.56,0,0,1,542.25,120.3ZM284.71,239.81c0,14.92-50.83,37.42-127.55,37.42S29.49,254.73,29.49,239.81V177.67c28.22,17.72,78,26.93,127.56,26.93s99.45-9.22,127.55-26.93v62.14ZM29.49,273.74c28.22,17.72,78,26.93,127.56,26.93s99.45-9.22,127.55-26.93v62.14c0,14.92-50.83,37.42-127.55,37.42S29.49,350.8,29.49,335.88ZM157.05,106.31c76.71,0,127.55,22.5,127.55,37.43s-50.83,37.42-127.55,37.42S29.49,158.66,29.49,143.74,80.45,106.31,157.05,106.31Zm0,363.06c-76.6,0-127.56-22.51-127.56-37.43V369.8c28.22,17.72,78,26.93,127.56,26.93s99.45-9.21,127.55-26.93v62.14c.12,14.92-50.83,37.43-127.54,37.43ZM542.25,442a23.55,23.55,0,1,1-23.55,23.55A23.56,23.56,0,0,1,542.25,442Zm0-160.89a23.55,23.55,0,1,1-23.55,23.54A23.56,23.56,0,0,1,542.25,281.08Z"></path></svg>
