<svg xmlns="http://www.w3.org/2000/svg" xmlns:xlink="http://www.w3.org/1999/xlink" id="Capa_1" data-name="Capa 1" viewBox="0 0 595.3 595.3"><defs><style>.cls-1{fill:url(#Degradado_sin_nombre_22);}.cls-2{fill:url(#Degradado_sin_nombre_22-2);}.cls-3{fill:url(#Degradado_sin_nombre_22-3);}.cls-4{fill:url(#Degradado_sin_nombre_22-4);}.cls-5{fill:url(#Degradado_sin_nombre_22-5);}</style><linearGradient id="Degradado_sin_nombre_22" x1="297.65" y1="568.9" x2="297.65" y2="26.4" gradientUnits="userSpaceOnUse"><stop offset="0" stop-color="#a993f9"></stop><stop offset="1" stop-color="#d9d2f9"></stop></linearGradient><linearGradient id="Degradado_sin_nombre_22-2" x1="297.65" y1="187.63" x2="297.65" y2="116.97" xlink:href="#Degradado_sin_nombre_22"></linearGradient><linearGradient id="Degradado_sin_nombre_22-3" x1="297.64" y1="358.15" x2="297.64" y2="291.5" xlink:href="#Degradado_sin_nombre_22"></linearGradient><linearGradient id="Degradado_sin_nombre_22-4" x1="297.65" y1="442.68" x2="297.65" y2="376.03" xlink:href="#Degradado_sin_nombre_22"></linearGradient><linearGradient id="Degradado_sin_nombre_22-5" x1="297.65" y1="527.19" x2="297.65" y2="460.54" xlink:href="#Degradado_sin_nombre_22"></linearGradient></defs><path class="cls-1" d="M323,29a125.57,125.57,0,0,0-50.72,0,8.76,8.76,0,0,0-6.94,8.57V62a93.19,93.19,0,0,0-8.63,3.55L239.4,48.26a8.74,8.74,0,0,0-11-1.11,127.78,127.78,0,0,0-35.78,35.78,8.74,8.74,0,0,0,1.11,11L211,111.21a85.12,85.12,0,0,0-3.67,8.81h-24.4a8.76,8.76,0,0,0-8.57,6.94,118.75,118.75,0,0,0-2.15,16.61H82.4a33.8,33.8,0,0,0-33.77,33.77V535.13A33.8,33.8,0,0,0,82.4,568.9H512.9a33.8,33.8,0,0,0,33.77-33.77V177.34a33.81,33.81,0,0,0-33.77-33.78H423.11A120.26,120.26,0,0,0,421,127a8.74,8.74,0,0,0-8.56-6.93H388a81.19,81.19,0,0,0-3.64-8.72l17.23-17.24a8.73,8.73,0,0,0,1.17-10.93,122.07,122.07,0,0,0-35.91-35.91,8.75,8.75,0,0,0-10.94,1.16L338.66,65.62A80.2,80.2,0,0,0,330,62V37.56A8.76,8.76,0,0,0,323,29ZM529.17,177.33V535.12A16.31,16.31,0,0,1,512.9,551.4H82.4a16.31,16.31,0,0,1-16.28-16.28V177.33A16.31,16.31,0,0,1,82.4,161.06h89.79a119.71,119.71,0,0,0,2.15,16.6,8.76,8.76,0,0,0,8.57,6.94h24.47a88.71,88.71,0,0,0,3.61,8.68l-17.28,17.27a8.76,8.76,0,0,0-1.16,10.94,122,122,0,0,0,35.87,36,8.73,8.73,0,0,0,11-1.13L256.71,239a91.5,91.5,0,0,0,8.63,3.54V267a8.77,8.77,0,0,0,6.93,8.57,125,125,0,0,0,50.73,0,8.76,8.76,0,0,0,6.93-8.57v-24.4a80.35,80.35,0,0,0,8.72-3.64l17.24,17.23a8.74,8.74,0,0,0,10.93,1.17,121.72,121.72,0,0,0,36-35.87,8.75,8.75,0,0,0-1.13-11l-17.32-17.31a91.5,91.5,0,0,0,3.54-8.63h24.48a8.74,8.74,0,0,0,8.56-6.94,118.41,118.41,0,0,0,2.15-16.6H512.9a16.29,16.29,0,0,1,16.27,16.27ZM335.81,83.92a8.73,8.73,0,0,0,10.63-1.35l16.64-16.64A104.14,104.14,0,0,1,384,86.87L367.38,103.5A8.75,8.75,0,0,0,366,114.12a64.14,64.14,0,0,1,7,16.78,8.76,8.76,0,0,0,8.49,6.6H405a108.87,108.87,0,0,1,0,29.59H381.5a8.76,8.76,0,0,0-8.45,6.46,75.34,75.34,0,0,1-7,17.09,8.74,8.74,0,0,0,1.46,10.44l16.62,16.63a104.32,104.32,0,0,1-21,21L346.45,222a8.75,8.75,0,0,0-10.63-1.35,65,65,0,0,1-16.78,7,8.75,8.75,0,0,0-6.59,8.48v23.54a110.29,110.29,0,0,1-29.6,0V236.15a8.76,8.76,0,0,0-6.46-8.45,75.34,75.34,0,0,1-17.09-7,8.74,8.74,0,0,0-10.45,1.46l-16.62,16.62a104.42,104.42,0,0,1-21-21l16.65-16.66a8.73,8.73,0,0,0,1.39-10.55,71.78,71.78,0,0,1-7.06-17,8.73,8.73,0,0,0-8.44-6.46H190.25a109.15,109.15,0,0,1-1-14.8,107.27,107.27,0,0,1,1-14.78H213.8a8.79,8.79,0,0,0,8.49-6.6,66.82,66.82,0,0,1,7-17,8.73,8.73,0,0,0-1.39-10.55l-16.6-16.6a111.27,111.27,0,0,1,20.94-20.93l16.6,16.59a8.72,8.72,0,0,0,10.45,1.46,75.43,75.43,0,0,1,17.09-7,8.75,8.75,0,0,0,6.45-8.45V44.9a111.2,111.2,0,0,1,29.61,0V68.45A8.76,8.76,0,0,0,319,76.93a64.74,64.74,0,0,1,16.77,7Z"></path><path class="cls-2" d="M262.32,152.3A35.33,35.33,0,1,0,297.65,117,35.37,35.37,0,0,0,262.32,152.3Zm53.16,0a17.83,17.83,0,1,1-17.83-17.83A17.85,17.85,0,0,1,315.48,152.3Z"></path><path class="cls-3" d="M294.11,316.11a33.14,33.14,0,0,0-64.05,0H119.49a8.75,8.75,0,0,0,0,17.5h110.6a33.13,33.13,0,0,0,64,0h181.7a8.75,8.75,0,1,0,0-17.5Zm-32,24.54a15.85,15.85,0,0,1-15.82-15.75s0,0,0,0,0,0,0-.07a15.83,15.83,0,1,1,15.83,15.86Z"></path><path class="cls-4" d="M475.8,400.64H428.14a33.14,33.14,0,0,0-64.05,0H119.5a8.75,8.75,0,0,0,0,17.5H364.12a33.13,33.13,0,0,0,64,0H475.8a8.75,8.75,0,1,0,0-17.5Zm-79.68,24.53a15.83,15.83,0,1,1,15.82-15.89s0,.06,0,.1,0,0,0,.07a15.85,15.85,0,0,1-15.82,15.72Z"></path><path class="cls-5" d="M475.8,485.08H244.94a33.13,33.13,0,0,0-64,0H119.5a8.75,8.75,0,1,0,0,17.5h61.43a33.14,33.14,0,0,0,64,0H475.79a8.75,8.75,0,0,0,0-17.5ZM212.94,509.69a15.83,15.83,0,1,1,15.83-15.83A15.86,15.86,0,0,1,212.94,509.69Z"></path></svg>
