<svg xmlns="http://www.w3.org/2000/svg" xmlns:xlink="http://www.w3.org/1999/xlink" id="Capa_1" data-name="Capa 1" viewBox="0 0 595.3 595.3"><defs><style>.cls-1{fill:url(#Degradado_sin_nombre_24);}.cls-2{fill:url(#Degradado_sin_nombre_24-2);}.cls-3{fill:url(#Degradado_sin_nombre_24-3);}.cls-4{fill:url(#Degradado_sin_nombre_24-4);}.cls-5{fill:url(#Degradado_sin_nombre_24-5);}</style><linearGradient id="Degradado_sin_nombre_24" x1="297.65" y1="410.33" x2="297.65" y2="243.01" gradientUnits="userSpaceOnUse"><stop offset="0" stop-color="#a993f9"></stop><stop offset="1" stop-color="#d9d2f9"></stop></linearGradient><linearGradient id="Degradado_sin_nombre_24-2" x1="242.59" y1="267.6" x2="242.59" y2="184.97" xlink:href="#Degradado_sin_nombre_24"></linearGradient><linearGradient id="Degradado_sin_nombre_24-3" x1="352.71" y1="267.6" x2="352.71" y2="184.97" xlink:href="#Degradado_sin_nombre_24"></linearGradient><linearGradient id="Degradado_sin_nombre_24-4" x1="297.65" y1="296.28" x2="297.65" y2="255.31" xlink:href="#Degradado_sin_nombre_24"></linearGradient><linearGradient id="Degradado_sin_nombre_24-5" x1="297.65" y1="559.88" x2="297.65" y2="35.42" xlink:href="#Degradado_sin_nombre_24"></linearGradient></defs><path class="cls-1" d="M297.65,410.33A101.18,101.18,0,0,1,196.58,309.26V255.31A12.3,12.3,0,0,1,208.87,243H386.42a12.3,12.3,0,0,1,12.3,12.3v53.95A101.18,101.18,0,0,1,297.65,410.33ZM221.17,267.6v41.66a76.48,76.48,0,0,0,153,0V267.6Z"></path><path class="cls-2" d="M242.59,267.6a12.29,12.29,0,0,1-12.29-12.29V197.26a12.29,12.29,0,0,1,24.58,0v58.05A12.29,12.29,0,0,1,242.59,267.6Z"></path><path class="cls-3" d="M352.71,267.6a12.29,12.29,0,0,1-12.29-12.29V197.26a12.29,12.29,0,0,1,24.58,0v58.05A12.29,12.29,0,0,1,352.71,267.6Z"></path><path class="cls-4" d="M208.87,255.31H386.42v41H208.87Z"></path><path class="cls-5" d="M297.65,559.88c-144.59,0-262.23-117.64-262.23-262.23S153.06,35.42,297.65,35.42,559.88,153.06,559.88,297.65c0,116.25-77.93,219.88-189.52,252a12.29,12.29,0,1,1-6.8-23.63C464.67,496.91,535.3,403,535.3,297.64,535.3,166.6,428.69,60,297.65,60S60,166.6,60,297.64C60,424.56,160,528.56,285.37,535V398A12.29,12.29,0,1,1,310,398V547.58a12.29,12.29,0,0,1-12.29,12.29Z"></path></svg>
